<svg xmlns="http://www.w3.org/2000/svg" width="42" height="90" viewBox="116 210 42 90" shape-rendering="geometricPrecision">
  <title>One frame serves both sides: the rig reflects it about the character centre line. The guide foreleg, lower. A flat top ON the elbow pivot and the same radius as the upper sleeve cap, with no line across it: bent, the two read as one limb with no knob or bead at the joint.</title>
  <path d="M 121,214 L 153,214 C 154.5,236 152,262 150.5,282 A 13.5 13.5 0 0 1 123.5,282 C 122,262 119.5,236 121,214 Z" fill="#7c4327"/>
  <defs><clipPath id="al"><path d="M 121,214 L 153,214 C 154.5,236 152,262 150.5,282 A 13.5 13.5 0 0 1 123.5,282 C 122,262 119.5,236 121,214 Z"/></clipPath></defs>
  <g clip-path="url(#al)">
    <path d="M 142.12,184 L 181,184 L 181,312 L 142.12,312 Z" fill="#401812"/>
    <ellipse cx="129" cy="235.76" rx="3.52" ry="13.6" fill="#b4733b"/>
    <path d="M 153,214 C 154.5,236 152,262 150.5,282 A 13.5 13.5 0 0 1 123.5,282 C 122,262 119.5,236 121,214" fill="none" stroke="#7c4327" stroke-width="12" stroke-linecap="round" stroke-linejoin="round"/>
  </g>
  <path d="M 153,214 C 154.5,236 152,262 150.5,282 A 13.5 13.5 0 0 1 123.5,282 C 122,262 119.5,236 121,214" fill="none" stroke="#3a2018" stroke-width="6" stroke-linecap="round" stroke-linejoin="round"/>
</svg>
