<svg xmlns="http://www.w3.org/2000/svg" width="43" height="62" viewBox="114 63 43 62" shape-rendering="geometricPrecision">
  <title>Face, expression &quot;surprised&quot;, masculine presentation, three-quarter. Two white eyes with ink pupils and a catchlight, so it reads on all six skin ramps; brows, pupils and mouth change SHAPE between expressions. Masculine: heavier flatter brows, a slightly wider mouth and a jaw shadow. Face detail only: no proportion, outline or size differs from any other option.</title>
  <defs><clipPath id="fc"><path d="M 83,89 C 79,61 96,44 121,44 C 145,44 159,58 160,76 C 160,80 161,83 164,86 C 167,89 167,94 163,96 C 161,97 160,99 160,102 C 158,113 149,122 134,123.5 C 119,125 106,120 97,112 C 89,105 84,97 83,89 Z"/></clipPath></defs>
  <g clip-path="url(#fc)">
    <ellipse cx="140" cy="125" rx="26" ry="6" fill="#16203a" opacity="0.14"/>
  </g>
  <ellipse cx="126" cy="84" rx="6.8" ry="8.8" fill="#ffffff" stroke="#3a2018" stroke-width="3"/>
  <ellipse cx="127.9" cy="84" rx="2.7" ry="3.77" fill="#3a2018"/>
  <circle cx="126.96" cy="82.42" r="1.8" fill="#ffffff"/>
  <path d="M 118.5,69 Q 126,66.6 133.5,67.5" fill="none" stroke="#3a2018" stroke-width="5.2" stroke-linecap="round" stroke-linejoin="round"/>
  <ellipse cx="146" cy="84" rx="5.3" ry="8.5" fill="#ffffff" stroke="#3a2018" stroke-width="3"/>
  <ellipse cx="147.37" cy="84" rx="2.24" ry="3.64" fill="#3a2018"/>
  <circle cx="146.58" cy="82.47" r="1.4" fill="#ffffff"/>
  <path d="M 139.5,67.5 Q 146,67.1 152.5,68" fill="none" stroke="#3a2018" stroke-width="5.2" stroke-linecap="round" stroke-linejoin="round"/>
  <ellipse cx="143" cy="109.5" rx="4" ry="5" fill="#ffffff" stroke="#3a2018" stroke-width="3"/>
</svg>
