<svg xmlns="http://www.w3.org/2000/svg" width="1080" height="450" viewBox="0 0 1080 450" shape-rendering="geometricPrecision">
  <title>The near bank of the skateway in winter: the lit edge of the ice sheet, a rounded snowbank crest with blue shadow under it, red-osier dogwood stems standing out of the snow, and drifts crossed by footprints. A repeating strip over the ground fill (ADR-0042), world y 1470..1920, so it starts at the lowest point of the level's ground and lies under the ground everywhere; the ice between the walking line and this bank is the ground fill. GENERIC BY CONSTRUCTION: no wall, bridge, hut or figure.</title>
  <rect x="0" y="0" width="1080" height="450" fill="#e6eff7"/>
  <rect x="0" y="0" width="1080" height="8" fill="#e4f2f6"/>
  <rect x="0" y="8" width="1080" height="6" fill="#a9d0e5"/>
  <rect x="0" y="14" width="1080" height="20" fill="#c2d6e8"/>
  <ellipse cx="-51.8" cy="44" rx="121.8" ry="30" fill="#c2d6e8"/>
  <ellipse cx="1028.2" cy="44" rx="121.8" ry="30" fill="#c2d6e8"/>
  <ellipse cx="-55.8" cy="36" rx="117.9" ry="26" fill="#ffffff"/>
  <ellipse cx="1024.2" cy="36" rx="117.9" ry="26" fill="#ffffff"/>
  <ellipse cx="127.2" cy="44" rx="100.2" ry="30" fill="#c2d6e8"/>
  <ellipse cx="123.2" cy="36" rx="96.9" ry="26" fill="#ffffff"/>
  <ellipse cx="302.6" cy="44" rx="117.3" ry="30" fill="#c2d6e8"/>
  <ellipse cx="298.6" cy="36" rx="113.5" ry="26" fill="#ffffff"/>
  <ellipse cx="493.5" cy="44" rx="119.5" ry="30" fill="#c2d6e8"/>
  <ellipse cx="489.5" cy="36" rx="115.6" ry="26" fill="#ffffff"/>
  <ellipse cx="672.7" cy="44" rx="102.7" ry="30" fill="#c2d6e8"/>
  <ellipse cx="668.7" cy="36" rx="99.4" ry="26" fill="#ffffff"/>
  <ellipse cx="842.7" cy="44" rx="108.1" ry="30" fill="#c2d6e8"/>
  <ellipse cx="838.7" cy="36" rx="104.6" ry="26" fill="#ffffff"/>
  <ellipse cx="501.4" cy="182" rx="188.1" ry="20.6" fill="#c2d6e8"/>
  <ellipse cx="490.1" cy="170" rx="188.1" ry="20.6" fill="#ffffff"/>
  <ellipse cx="207.5" cy="182" rx="166.2" ry="27.5" fill="#c2d6e8"/>
  <ellipse cx="197.5" cy="170" rx="166.2" ry="27.5" fill="#ffffff"/>
  <ellipse cx="602.8" cy="182" rx="121.6" ry="25.6" fill="#c2d6e8"/>
  <ellipse cx="595.5" cy="170" rx="121.6" ry="25.6" fill="#ffffff"/>
  <ellipse cx="313.7" cy="182" rx="134.9" ry="21.2" fill="#c2d6e8"/>
  <ellipse cx="305.6" cy="170" rx="134.9" ry="21.2" fill="#ffffff"/>
  <ellipse cx="863" cy="182" rx="213.6" ry="21.3" fill="#c2d6e8"/>
  <ellipse cx="850.2" cy="170" rx="213.6" ry="21.3" fill="#ffffff"/>
  <ellipse cx="672.9" cy="182" rx="206.3" ry="21.2" fill="#c2d6e8"/>
  <ellipse cx="660.5" cy="170" rx="206.3" ry="21.2" fill="#ffffff"/>
  <ellipse cx="367.1" cy="182" rx="162.9" ry="22.6" fill="#c2d6e8"/>
  <ellipse cx="357.4" cy="170" rx="162.9" ry="22.6" fill="#ffffff"/>
  <ellipse cx="328" cy="182" rx="172.2" ry="24.2" fill="#c2d6e8"/>
  <ellipse cx="317.7" cy="170" rx="172.2" ry="24.2" fill="#ffffff"/>
  <ellipse cx="527.6" cy="344" rx="234.7" ry="30.2" fill="#c2d6e8"/>
  <ellipse cx="513.6" cy="330" rx="234.7" ry="30.2" fill="#e6eff7"/>
  <ellipse cx="664.9" cy="344" rx="172.1" ry="28.7" fill="#c2d6e8"/>
  <ellipse cx="654.6" cy="330" rx="172.1" ry="28.7" fill="#e6eff7"/>
  <ellipse cx="937.1" cy="344" rx="215.5" ry="24.2" fill="#c2d6e8"/>
  <ellipse cx="-142.9" cy="344" rx="215.5" ry="24.2" fill="#c2d6e8"/>
  <ellipse cx="924.2" cy="330" rx="215.5" ry="24.2" fill="#e6eff7"/>
  <ellipse cx="-155.8" cy="330" rx="215.5" ry="24.2" fill="#e6eff7"/>
  <ellipse cx="100" cy="344" rx="169.9" ry="24.8" fill="#c2d6e8"/>
  <ellipse cx="1180" cy="344" rx="169.9" ry="24.8" fill="#c2d6e8"/>
  <ellipse cx="89.8" cy="330" rx="169.9" ry="24.8" fill="#e6eff7"/>
  <ellipse cx="1169.8" cy="330" rx="169.9" ry="24.8" fill="#e6eff7"/>
  <ellipse cx="193.6" cy="344" rx="224.2" ry="34.1" fill="#c2d6e8"/>
  <ellipse cx="1273.6" cy="344" rx="224.2" ry="34.1" fill="#c2d6e8"/>
  <ellipse cx="180.1" cy="330" rx="224.2" ry="34.1" fill="#e6eff7"/>
  <ellipse cx="1260.1" cy="330" rx="224.2" ry="34.1" fill="#e6eff7"/>
  <ellipse cx="727.5" cy="344" rx="203.7" ry="27.9" fill="#c2d6e8"/>
  <ellipse cx="715.3" cy="330" rx="203.7" ry="27.9" fill="#e6eff7"/>
  <ellipse cx="405.1" cy="344" rx="208.5" ry="29.5" fill="#c2d6e8"/>
  <ellipse cx="392.6" cy="330" rx="208.5" ry="29.5" fill="#e6eff7"/>
  <polygon points="272.3,40 276.3,40 275.8,-20.6 273.8,-20.6" fill="#91301c"/>
  <polygon points="286.2,40 290.2,40 275.8,-28 273.8,-28" fill="#91301c"/>
  <polygon points="274.6,40 278.6,40 272.6,-3.1 270.6,-3.1" fill="#4e0e10"/>
  <polygon points="260.7,40 264.7,40 260.9,-11 258.9,-11" fill="#91301c"/>
  <polygon points="255.3,40 259.3,40 262.7,-17.1 260.7,-17.1" fill="#91301c"/>
  <polygon points="229.2,40 233.2,40 234.8,-22.9 232.8,-22.9" fill="#91301c"/>
  <ellipse cx="260" cy="42" rx="40" ry="9" fill="#ffffff"/>
  <polygon points="708.4,40 712.4,40 709.6,-24.2 707.6,-24.2" fill="#4e0e10"/>
  <polygon points="683.6,40 687.6,40 675,5.7 673,5.7" fill="#4e0e10"/>
  <polygon points="693.6,40 697.6,40 704.9,-17.6 702.9,-17.6" fill="#91301c"/>
  <polygon points="711.5,40 715.5,40 728.2,-19.5 726.2,-19.5" fill="#91301c"/>
  <polygon points="680.6,40 684.6,40 684.8,-8.9 682.8,-8.9" fill="#91301c"/>
  <polygon points="683,40 687,40 684.1,-26.2 682.1,-26.2" fill="#91301c"/>
  <ellipse cx="700" cy="42" rx="40" ry="9" fill="#ffffff"/>
  <polygon points="947.9,40 951.9,40 939.1,-11.3 937.1,-11.3" fill="#91301c"/>
  <polygon points="980.6,40 984.6,40 984.1,-18.9 982.1,-18.9" fill="#91301c"/>
  <polygon points="971,40 975,40 985.3,-27.7 983.3,-27.7" fill="#91301c"/>
  <polygon points="957,40 961,40 950.5,-11.5 948.5,-11.5" fill="#4e0e10"/>
  <polygon points="958.8,40 962.8,40 952.4,-4.4 950.4,-4.4" fill="#91301c"/>
  <polygon points="937.1,40 941.1,40 930.7,-28.8 928.7,-28.8" fill="#91301c"/>
  <ellipse cx="960" cy="42" rx="40" ry="9" fill="#ffffff"/>
  <ellipse cx="80" cy="221" rx="9" ry="4.5" fill="#c2d6e8" fill-opacity="0.7"/>
  <ellipse cx="144" cy="249" rx="9" ry="4.5" fill="#c2d6e8" fill-opacity="0.7"/>
  <ellipse cx="208" cy="241" rx="9" ry="4.5" fill="#c2d6e8" fill-opacity="0.7"/>
  <ellipse cx="272" cy="269" rx="9" ry="4.5" fill="#c2d6e8" fill-opacity="0.7"/>
  <ellipse cx="336" cy="261" rx="9" ry="4.5" fill="#c2d6e8" fill-opacity="0.7"/>
  <ellipse cx="400" cy="289" rx="9" ry="4.5" fill="#c2d6e8" fill-opacity="0.7"/>
  <ellipse cx="464" cy="281" rx="9" ry="4.5" fill="#c2d6e8" fill-opacity="0.7"/>
  <ellipse cx="528" cy="309" rx="9" ry="4.5" fill="#c2d6e8" fill-opacity="0.7"/>
  <ellipse cx="592" cy="301" rx="9" ry="4.5" fill="#c2d6e8" fill-opacity="0.7"/>
  <ellipse cx="656" cy="329" rx="9" ry="4.5" fill="#c2d6e8" fill-opacity="0.7"/>
  <ellipse cx="720" cy="321" rx="9" ry="4.5" fill="#c2d6e8" fill-opacity="0.7"/>
  <ellipse cx="784" cy="349" rx="9" ry="4.5" fill="#c2d6e8" fill-opacity="0.7"/>
  <ellipse cx="848" cy="341" rx="9" ry="4.5" fill="#c2d6e8" fill-opacity="0.7"/>
  <ellipse cx="912" cy="369" rx="9" ry="4.5" fill="#c2d6e8" fill-opacity="0.7"/>
  <ellipse cx="976" cy="361" rx="9" ry="4.5" fill="#c2d6e8" fill-opacity="0.7"/>
  <ellipse cx="1040" cy="389" rx="9" ry="4.5" fill="#c2d6e8" fill-opacity="0.7"/>
</svg>
